<svg id="SvgjsSvg1138" width="288" height="288" xmlns="http://www.w3.org/2000/svg" version="1.1" xmlns:xlink="http://www.w3.org/1999/xlink" xmlns:svgjs="http://svgjs.com/svgjs"><defs id="SvgjsDefs1139"></defs><g id="SvgjsG1140"><svg xmlns="http://www.w3.org/2000/svg" enable-background="new 0 0 256 256" viewBox="0 0 256 256" width="288" height="288"><rect width="256" height="256" fill="none"></rect><path d="M140.8,183.2c-0.6-0.3-1.3-0.3-1.9,0.1c-0.9,0.5-1.9,0.8-2.9,0.8c0,0,0,0,0,0c-3.3,0-6-2.7-6-6c0-1,0.3-2.1,0.8-3		c0.4-0.6,0.4-1.4,0-2c-0.4-0.6-1-1-1.7-1c-0.1,0-0.3,0-0.4,0c-0.2,0-0.5,0-0.7,0c-7.7,0-14,6.3-14,14c0,3,0.9,5.7,2.5,8
		c1.1,1.6,2.6,3,4.3,4c2.1,1.3,4.6,2,7.2,2s5.1-0.7,7.2-2c1.7-1,3.1-2.4,4.3-4c1.6-2.3,2.5-5,2.5-8c0-0.4,0-0.8-0.1-1.3
		C141.8,184,141.4,183.4,140.8,183.2z M134,194c-1.7,1.3-3.8,2-6,2c-2.2,0-4.3-0.7-6-2c-2.4-1.8-4-4.7-4-8c0-4.9,3.5-9,8.2-9.8
		c-0.1,0.6-0.2,1.2-0.2,1.8c0,5.5,4.5,10,10,10c0.6,0,1.2,0,1.8-0.2C137.4,190.3,136,192.5,134,194z" fill="#071a52" class="color000 svgShape"></path><path d="M210.2,148.9c-1.9-1.9-4.4-2.9-7.1-2.9h-15.4l-1.3-6.2c-0.8-3.7-3.5-6.6-7.2-7.6l-35.5-9.5c0,0-0.1,0-0.1,0
		c-0.9-0.2-1.6-1-1.6-2V108v-1.5c7.8-4.1,13.6-11.6,15.4-20.5h6.6c7.7,0,14-6.3,14-14s-6.3-14-14-14h-6V28c0-1.1-0.9-2-2-2h-40
		c-9.9,0-18,8.1-18,18v14h-6c-7.7,0-14,6.3-14,14c0,5.6,3.3,10.4,8,12.6V88c0,5.5,4.5,10,10,10h8c2.7,3.5,6.1,6.4,10,8.5v1.5v12.7
		c0,1-0.7,1.8-1.6,2c0,0-0.1,0-0.1,0l-35.5,9.5c-3.7,1-6.4,3.9-7.2,7.6l-1.3,6.2H52.9c-0.4,0-0.8,0-1.2,0.1c-5.5,0.6-9.4,5.5-8.8,11
		l7,64c0.6,5.1,4.8,8.9,9.9,8.9h136.2c5.1,0,9.4-3.8,9.9-8.9l7-64c0-0.4,0.1-0.7,0.1-1.1C213.1,153.3,212,150.8,210.2,148.9z
		 M158,80V64v-2h6c5.5,0,10,4.5,10,10s-4.5,10-10,10h-6.1C158,81.3,158,80.7,158,80z M102,60V44c0-7.7,6.3-14,14-14h38v30v2h-8V51.8
		c0-3.3-2.7-6-6-6h-24c-3.3,0-6,2.7-6,6V62h-8V60z M82,72c0-5.5,4.5-10,10-10h6v2v16c0,0.7,0,1.3,0.1,2H92C86.5,82,82,77.5,82,72z
		 M96,94c-3.3,0-6-2.7-6-6v-2.2c0.7,0.1,1.3,0.2,2,0.2h6.6c0.6,2.8,1.6,5.5,2.9,8H96z M109.3,98H120c0.2,0,0.3,0,0.5-0.1
		c0.7,1.2,2,2.1,3.5,2.1c2.2,0,4-1.8,4-4s-1.8-4-4-4c-1.5,0-2.8,0.8-3.5,2.1c-0.2,0-0.3-0.1-0.5-0.1h-13.9c-2.6-4-4.1-8.8-4.1-14V66
		h10c1.1,0,2-0.9,2-2V51.8c0-1.1,0.9-2,2-2h24c1.1,0,2,0.9,2,2V64c0,1.1,0.9,2,2,2h10v14c0,14.3-11.7,26-26,26
		C120.6,106,114,102.9,109.3,98z M138,108.3v12.4v2.6l-10,13.7l-10-13.7v-2.6v-12.4c3.1,1.1,6.5,1.7,10,1.7S134.9,109.4,138,108.3z
		 M73.5,140.7c0.5-2.2,2.1-4,4.3-4.6l35.4-9.5c0.6-0.1,1.2-0.4,1.7-0.6c0,0,0,0,0,0l11.4,15.7c0.4,0.5,1,0.8,1.6,0.8
		s1.2-0.3,1.6-0.8l11.4-15.7c0,0,0,0,0,0c0.5,0.3,1.1,0.5,1.7,0.6l35.4,9.5c2.2,0.6,3.9,2.3,4.3,4.6l1.1,5.3H72.4L73.5,140.7z
		 M209,156.7l-7,64c-0.3,3-2.9,5.3-6,5.3c0,0,0,0,0,0H59.9c-3.1,0-5.6-2.3-6-5.3l-7-64c-0.4-3.3,2-6.2,5.3-6.6c0.2,0,0.4,0,0.7,0
		h14.6h4.1h112.8h4.1h14.6c1.6,0,3.1,0.6,4.2,1.8c1.1,1.1,1.8,2.6,1.8,4.2C209.1,156.2,209.1,156.4,209,156.7z" fill="#071a52" class="color000 svgShape"></path></svg></g></svg>