<svg id="SvgjsSvg1113" width="288" height="288" xmlns="http://www.w3.org/2000/svg" version="1.1" xmlns:xlink="http://www.w3.org/1999/xlink" xmlns:svgjs="http://svgjs.com/svgjs"><defs id="SvgjsDefs1114"></defs><g id="SvgjsG1115"><svg xmlns="http://www.w3.org/2000/svg" viewBox="0 0 64 64" width="288" height="288"><g data-name="Shipping World"><path d="M44.83,21.87l0-.06a16.29,16.29,0,0,0-25.47,0s-.05.06-.07.1a16.24,16.24,0,0,0,0,20.24l0,0a16.28,16.28,0,0,0,25.59,0h0a16.22,16.22,0,0,0,0-20.24Zm-.77,1.61a14.63,14.63,0,0,1,2.7,7.73H37.21c0-1.26-.06-2.53-.17-3.75A16.36,16.36,0,0,0,44.06,23.48ZM28.44,31.21c0-1.18.07-2.31.15-3.37a18.69,18.69,0,0,0,3.38.31,19,19,0,0,0,3.51-.33c.09,1.06.14,2.2.15,3.39Zm7.2,1.58c0,1.36-.08,2.64-.19,3.84a20.19,20.19,0,0,0-6.82,0c-.11-1.2-.18-2.48-.19-3.84Zm7.43-10.56a15,15,0,0,1-6.19,3.62c-.42-3.48-1.2-6.54-2.33-8.38A14.82,14.82,0,0,1,43.07,22.23Zm-11-5c1.13,0,2.64,3.38,3.29,9a16.69,16.69,0,0,1-3.36.34,16.84,16.84,0,0,1-3.22-.31C29.39,20.63,30.91,17.24,32,17.24Zm-2.51.23c-1.14,1.84-1.92,4.91-2.33,8.41A14.54,14.54,0,0,1,21,22.24,14.77,14.77,0,0,1,29.53,17.47Zm-9.52,6a16,16,0,0,0,7,4c-.1,1.21-.15,2.47-.17,3.72H17.31A14.65,14.65,0,0,1,20,23.49Zm0,17.07a14.77,14.77,0,0,1-2.73-7.77h9.56c0,1.41.08,2.81.2,4.16A16.5,16.5,0,0,0,20,40.56Zm1,1.23a15.08,15.08,0,0,1,6.22-3.25,21.42,21.42,0,0,0,2.28,8A14.74,14.74,0,0,1,21,41.79Zm11,5c-1.1,0-2.57-3.2-3.24-8.56A19,19,0,0,1,32,37.92a18.07,18.07,0,0,1,3.24.29C34.6,43.56,33.14,46.76,32,46.76Zm2.51-.23a21.61,21.61,0,0,0,2.28-8,15.35,15.35,0,0,1,6.22,3.25A14.77,14.77,0,0,1,34.55,46.53Zm9.49-6A16.49,16.49,0,0,0,37,37c.13-1.35.19-2.75.21-4.16h9.55A14.67,14.67,0,0,1,44,40.56Z" fill="#071a52" class="color000 svgShape"></path><path d="M43.64,59a1,1,0,0,1-.41-1.91,27.45,27.45,0,0,0-.92-50.5,1,1,0,0,1,.09-1.88l7.07-2.06A1,1,0,1,1,50,4.53L45.54,5.84a29.45,29.45,0,0,1-1.49,53A1,1,0,0,1,43.64,59Z" fill="#071a52" class="color000 svgShape"></path><path d="M44.75 13.32a1 1 0 0 1-1-.71L41.73 5.92a1 1 0 0 1 1.91-.59L45.7 12A1 1 0 0 1 45 13.27.93.93 0 0 1 44.75 13.32zM15.65 61.33a1 1 0 0 1-.28-2L20.15 58C8.87 51.3 2.46 41.16 2.46 29.84c0-11.68 5.62-20.37 16.26-25.13a1 1 0 0 1 .81 1.83C9.67 11 4.46 19 4.46 29.84c0 11.24 6.83 21.28 18.72 27.55a1 1 0 0 1 .53 1 1 1 0 0 1-.71.85l-7.07 2.06A.9.9 0 0 1 15.65 61.33z" fill="#071a52" class="color000 svgShape"></path><path d="M22.72 59.27a1 1 0 0 1-.95-.68L19.55 52a1 1 0 1 1 1.9-.64L23.67 58A1 1 0 0 1 23 59.22.93.93 0 0 1 22.72 59.27zM35.07 3.19H28.81a1.22 1.22 0 0 0-1.22 1.22v7.15A.45.45 0 0 0 28 12h7.8a.45.45 0 0 0 .45-.45V4.41A1.21 1.21 0 0 0 35.07 3.19zm-2.25.9V5.48l-.56-.4a.47.47 0 0 0-.52 0l-.58.41V4.09zm2.09 7H29a.49.49 0 0 1-.49-.49V4.41a.32.32 0 0 1 .32-.32h1.46V6.35a.45.45 0 0 0 .24.4.46.46 0 0 0 .2 0A.5.5 0 0 0 31 6.72L32 6l1 .71a.45.45 0 0 0 .46 0 .46.46 0 0 0 .25-.4V4.09h1.35a.32.32 0 0 1 .33.32v6.21A.49.49 0 0 1 34.91 11.11zM35.46 53.45H29.65a1.12 1.12 0 0 0-1.13 1.13v6.63a.41.41 0 0 0 .41.42h7.24a.42.42 0 0 0 .42-.42V54.58A1.13 1.13 0 0 0 35.46 53.45zm-2.1.83v1.29l-.51-.37a.42.42 0 0 0-.48 0l-.54.38v-1.3zm1.94 6.51H29.8a.45.45 0 0 1-.45-.45V54.58a.29.29 0 0 1 .3-.3H31v2.1a.42.42 0 0 0 .22.37.43.43 0 0 0 .19 0 .4.4 0 0 0 .24-.07l1-.67.94.67a.41.41 0 0 0 .43 0 .42.42 0 0 0 .22-.37v-2.1h1.27a.29.29 0 0 1 .29.3v5.76A.45.45 0 0 1 35.3 60.79z" fill="#071a52" class="color000 svgShape"></path></g></svg></g></svg>