<svg xmlns="http://www.w3.org/2000/svg" data-name="Layer 3" viewBox="0 0 24 24" id="success"><path fill="#ff7f58" d="M9.66,21.74c-.26,0-.53-.03-.79-.12-.75-.24-1.25-.82-1.7-1.32-.24-.27-.47-.53-.7-.7-.23-.17-.55-.31-.89-.46-.62-.27-1.31-.57-1.77-1.2-.45-.62-.53-1.37-.59-2.04-.04-.37-.07-.72-.16-1-.09-.26-.26-.55-.44-.86-.34-.58-.74-1.24-.74-2.04s.39-1.46,.74-2.04c.18-.31,.36-.6,.44-.86,.09-.28,.13-.63,.16-1,.07-.66,.14-1.42,.59-2.04,.45-.63,1.15-.93,1.77-1.2,.34-.15,.66-.29,.89-.46,.23-.17,.46-.43,.7-.7,.45-.51,.95-1.08,1.7-1.32,.72-.23,1.45-.07,2.1,.07,.74,.16,1.31,.16,2.05,0,.65-.14,1.38-.3,2.1-.07,.75,.24,1.25,.82,1.7,1.32,.24,.27,.47,.53,.7,.7,.23,.17,.55,.31,.89,.46,.62,.27,1.31,.57,1.77,1.2,.45,.62,.53,1.37,.59,2.04,.04,.37,.07,.72,.16,1,.09,.26,.26,.55,.44,.86,.34,.58,.74,1.24,.74,2.04s-.39,1.46-.74,2.04c-.18,.31-.36,.6-.44,.86-.09,.28-.13,.63-.16,1-.07,.66-.14,1.42-.59,2.04-.45,.63-1.15,.93-1.77,1.2-.34,.15-.66,.29-.89,.46-.23,.17-.46,.43-.7,.7-.45,.51-.95,1.08-1.7,1.32-.71,.23-1.45,.07-2.1-.07-.74-.16-1.31-.16-2.05,0-.41,.09-.85,.19-1.31,.19Zm0-17.97c-.12,0-.23,.01-.33,.05-.36,.12-.68,.49-1.03,.89-.28,.32-.58,.66-.94,.92-.37,.27-.78,.45-1.18,.62-.48,.21-.94,.41-1.15,.7-.21,.29-.26,.78-.31,1.3-.04,.43-.09,.88-.23,1.32-.14,.42-.36,.8-.58,1.16-.27,.46-.53,.89-.53,1.28s.26,.82,.53,1.28c.22,.37,.44,.74,.58,1.16,.14,.44,.19,.89,.23,1.32,.05,.52,.1,1.01,.31,1.3,.22,.3,.67,.49,1.15,.7,.4,.17,.81,.35,1.18,.62,.36,.26,.66,.6,.94,.92,.35,.4,.68,.77,1.03,.89,.33,.11,.81,0,1.31-.11,.43-.1,.88-.19,1.35-.19s.92,.1,1.35,.19c.51,.11,.98,.22,1.31,.11,.36-.12,.68-.49,1.03-.89,.28-.32,.58-.66,.94-.92,.37-.27,.78-.45,1.18-.62,.48-.21,.94-.41,1.15-.7,.21-.29,.26-.78,.31-1.3,.04-.43,.09-.88,.23-1.32,.14-.42,.36-.8,.58-1.16,.27-.46,.53-.89,.53-1.28s-.26-.82-.53-1.28c-.22-.37-.44-.74-.58-1.16-.14-.44-.19-.89-.23-1.32-.05-.52-.1-1.01-.31-1.3-.22-.3-.67-.49-1.15-.7-.4-.17-.81-.35-1.18-.62-.36-.26-.66-.6-.94-.92-.35-.4-.68-.77-1.03-.89-.33-.1-.81,0-1.31,.11-.43,.1-.88,.19-1.35,.19s-.92-.1-1.35-.19c-.36-.08-.7-.15-.98-.15Z"></path><path fill="#064bde" d="M11,14.75c-.19,0-.38-.07-.53-.22l-2-2c-.29-.29-.29-.77,0-1.06s.77-.29,1.06,0l1.47,1.47,3.47-3.47c.29-.29,.77-.29,1.06,0s.29,.77,0,1.06l-4,4c-.15,.15-.34,.22-.53,.22Z"></path></svg>